<svg width="520" height="519" viewBox="0 0 520 519" fill="none" xmlns="http://www.w3.org/2000/svg">
<path fill-rule="evenodd" clip-rule="evenodd" d="M360.749 20.4714C374.636 26.4267 387.234 33.2228 400.51 41.4793C502.108 104.664 549.583 242.894 500.564 357.073C500.564 357.073 495.936 367.636 492.731 373.808C489.527 379.979 491.517 375.971 485.253 387.813C478.99 399.655 467.221 415.157 467.221 415.157C467.221 415.157 474.928 404.202 474.928 351.257C474.928 298.312 443.95 230.297 357.922 193.167C352.666 190.899 347.435 188.782 342.311 186.81C325.403 180.303 309.728 175.637 298.234 172.083L296.579 171.572C296.048 171.408 295.525 171.247 295.014 171.088C248.47 162.66 216.424 131.204 216.424 88.48C217.974 62.6799 225.521 46.2562 250.735 27.1723C273.602 9.86492 309.002 6.70797 315.394 6.2702C316.064 6.22435 316.73 6.27707 317.385 6.42149C319.761 6.94502 326.123 8.40821 332.976 10.5015C340.703 12.8618 350.477 16.0662 360.749 20.4714Z" fill="#13928A"/>
<path fill-rule="evenodd" clip-rule="evenodd" d="M165.868 17.7263C13.3846 77.8363 -43.9732 252.967 36.1417 391.003C50.4986 413.071 64.7463 437.647 96.1387 450.947C102.608 453.195 118.594 456.281 128.244 448.685C151.821 430.127 141.062 373.318 193.76 338.779C222.008 321.925 236.861 318.046 268.415 319.077C377.371 322.638 449.556 390.554 467.221 415.157C467.221 415.157 456.933 314.828 336.661 279.672C263.519 258.294 215.292 259.772 182.366 231.485C146.627 200.781 141.817 171.274 145.454 127.157C152.347 83.3576 177.527 56.3824 201 39.8025C254.726 1.85483 316.603 6.26681 316.603 6.26681C316.603 6.26681 288.237 -0.730621 255.921 0.062695C230.608 0.42824 199.561 4.44425 165.868 17.7263Z" fill="#2B3351"/>
</svg>
